<?xml version="1.0"?>
<svg width="45" height="45" xmlns="http://www.w3.org/2000/svg" xmlns:svg="http://www.w3.org/2000/svg">
 <defs>
  <clipPath id="clip0_501_783">
   <rect fill="white" height="45" id="svg_1" width="45"/>
  </clipPath>
 </defs>
 <g class="layer">
  <title>Layer 1</title>
  <g clip-path="url(#clip0_501_783)" id="svg_2">
   <path d="m22.5,0c-12.43,0 -22.5,10.07 -22.5,22.5c0,12.43 10.07,22.5 22.5,22.5c12.43,0 22.5,-10.07 22.5,-22.5c0,-12.43 -10.07,-22.5 -22.5,-22.5zm10.79,27.3c-0.58,0.59 -1.53,0.59 -2.12,0l-8.67,-8.67l-8.67,8.67c-0.59,0.59 -1.54,0.59 -2.12,0c-0.59,-0.58 -0.59,-1.54 0,-2.12l9.72,-9.73c0.3,-0.29 0.68,-0.44 1.07,-0.44c0.39,0 0.77,0.15 1.07,0.44l9.72,9.73c0.59,0.58 0.59,1.53 0,2.12z" fill="#eb2744" id="svg_3"/>
  </g>
 </g>
</svg>