<svg width="182" height="20" viewBox="0 0 182 20" fill="none" xmlns="http://www.w3.org/2000/svg">
<path d="M0.2 15V0.999999H5.1C6.80667 0.999999 8.14667 1.36 9.12 2.08C10.1067 2.78667 10.6 3.76 10.6 5C10.6 6.24 10.1333 7.22 9.2 7.94C8.28 8.64667 7.01333 9 5.4 9H2.6V15H0.2ZM4.84 8.6C5.88 8.6 6.7 8.35333 7.3 7.86C7.9 7.36667 8.2 6.7 8.2 5.86C8.2 5.00667 7.9 4.33333 7.3 3.84C6.7 3.34667 5.88 3.1 4.84 3.1H2.6V8.6H4.84ZM13.2961 15V0.799999H15.3961V8.28C15.6228 7.22667 16.0694 6.38667 16.7361 5.76C17.4161 5.12 18.2228 4.8 19.1561 4.8C19.9561 4.8 20.6494 4.99333 21.2361 5.38C21.8361 5.75333 22.2961 6.29333 22.6161 7C22.9361 7.69333 23.0961 8.51333 23.0961 9.46V15H20.9761V9.78C20.9761 8.86 20.7228 8.12667 20.2161 7.58C19.7228 7.03333 19.0494 6.76 18.1961 6.76C17.6761 6.76 17.2028 6.89333 16.7761 7.16C16.3494 7.42667 16.0094 7.79333 15.7561 8.26C15.5161 8.71333 15.3961 9.22 15.3961 9.78V15H13.2961ZM30.9592 15.2C29.9459 15.2 29.0259 14.9733 28.1992 14.52C27.3726 14.0667 26.7259 13.4467 26.2592 12.66C25.7926 11.86 25.5592 10.9733 25.5592 10C25.5592 9.01333 25.7926 8.12667 26.2592 7.34C26.7259 6.55333 27.3726 5.93333 28.1992 5.48C29.0259 5.02667 29.9459 4.8 30.9592 4.8C31.9726 4.8 32.8859 5.02667 33.6992 5.48C34.5259 5.93333 35.1726 6.56 35.6392 7.36C36.1192 8.14667 36.3592 9.02667 36.3592 10C36.3592 10.9733 36.1192 11.86 35.6392 12.66C35.1726 13.4467 34.5259 14.0667 33.6992 14.52C32.8859 14.9733 31.9726 15.2 30.9592 15.2ZM30.9592 13.24C31.5592 13.24 32.1059 13.1 32.5992 12.82C33.0926 12.5267 33.4792 12.1333 33.7592 11.64C34.0526 11.1467 34.1992 10.6 34.1992 10C34.1992 9.4 34.0526 8.85333 33.7592 8.36C33.4792 7.85333 33.0926 7.46 32.5992 7.18C32.1059 6.88667 31.5592 6.74 30.9592 6.74C30.3592 6.74 29.8059 6.88667 29.2992 7.18C28.8059 7.46 28.4126 7.85333 28.1192 8.36C27.8392 8.85333 27.6992 9.4 27.6992 10C27.6992 10.6 27.8392 11.1467 28.1192 11.64C28.4126 12.1333 28.8059 12.5267 29.2992 12.82C29.8059 13.1 30.3592 13.24 30.9592 13.24ZM38.9992 15V5H41.0992V8.28C41.3259 7.22667 41.7726 6.38667 42.4392 5.76C43.1192 5.12 43.9259 4.8 44.8592 4.8C45.6592 4.8 46.3526 4.99333 46.9392 5.38C47.5392 5.75333 47.9992 6.29333 48.3192 7C48.6392 7.69333 48.7992 8.51333 48.7992 9.46V15H46.6792V9.78C46.6792 8.86 46.4259 8.12667 45.9192 7.58C45.4259 7.03333 44.7526 6.76 43.8992 6.76C43.3792 6.76 42.9059 6.89333 42.4792 7.16C42.0526 7.42667 41.7126 7.79333 41.4592 8.26C41.2192 8.71333 41.0992 9.22 41.0992 9.78V15H38.9992ZM57.3623 19.2C56.1623 19.2 55.129 19.0733 54.2623 18.82C53.3957 18.58 52.729 18.2267 52.2623 17.76C51.809 17.2933 51.5823 16.7333 51.5823 16.08C51.5823 15.3467 51.9023 14.7067 52.5423 14.16C53.1823 13.6133 54.1823 13.26 55.5423 13.1C53.9557 12.9533 52.769 12.6867 51.9823 12.3C51.1957 11.9 50.8023 11.3333 50.8023 10.6C50.8023 10.28 50.9223 10.0067 51.1623 9.78C51.4023 9.54 51.7023 9.42 52.0623 9.42C52.129 9.42 52.1957 9.42667 52.2623 9.44C52.329 9.44 52.3957 9.44667 52.4623 9.46C52.5423 9.48667 52.629 9.51333 52.7223 9.54C52.829 9.56667 52.929 9.60667 53.0223 9.66C52.4757 9.11333 52.2023 8.54 52.2023 7.94C52.2023 7.11333 52.5623 6.42667 53.2823 5.88C54.0157 5.32 55.0623 4.98 56.4223 4.86V2.4H58.6023V4.86C59.509 4.92667 60.289 5.1 60.9423 5.38C61.609 5.66 62.1157 6.03333 62.4623 6.5C62.8223 6.96667 63.0023 7.50667 63.0023 8.12C63.0023 8.78667 62.7823 9.36667 62.3423 9.86C61.9023 10.34 61.2757 10.7133 60.4623 10.98C59.649 11.2333 58.6957 11.36 57.6023 11.36C56.9223 11.36 56.329 11.3133 55.8223 11.22C55.329 11.1133 54.9223 10.9933 54.6023 10.86C54.2957 10.7267 53.9557 10.56 53.5823 10.36C53.249 10.1733 52.969 10.04 52.7423 9.96C52.529 9.88 52.289 9.84 52.0223 9.84C51.7823 9.84 51.5823 9.91333 51.4223 10.06C51.2757 10.2067 51.2023 10.3867 51.2023 10.6C51.2023 11.04 51.409 11.4133 51.8223 11.72C52.2357 12.0133 52.8023 12.2467 53.5223 12.42C54.2557 12.58 55.1223 12.6933 56.1223 12.76C56.349 12.7867 56.5757 12.8067 56.8023 12.82C57.0423 12.82 57.2823 12.82 57.5223 12.82C59.3223 12.8467 60.7223 13.1067 61.7223 13.6C62.7223 14.0933 63.2223 14.8533 63.2223 15.88C63.2223 16.56 62.9823 17.1467 62.5023 17.64C62.0357 18.1467 61.3557 18.5333 60.4623 18.8C59.5823 19.0667 58.549 19.2 57.3623 19.2ZM57.3823 17.6C58.1023 17.6 58.7357 17.5067 59.2823 17.32C59.8423 17.1467 60.269 16.8933 60.5623 16.56C60.869 16.24 61.0223 15.8667 61.0223 15.44C61.0223 14.7467 60.7023 14.2067 60.0623 13.82C59.4357 13.4333 58.5423 13.24 57.3823 13.24C56.6623 13.24 56.029 13.3333 55.4823 13.52C54.9357 13.6933 54.509 13.9467 54.2023 14.28C53.909 14.6133 53.7623 15 53.7623 15.44C53.7623 15.8667 53.909 16.24 54.2023 16.56C54.509 16.8933 54.9357 17.1467 55.4823 17.32C56.029 17.5067 56.6623 17.6 57.3823 17.6ZM57.6023 10.98C58.589 10.98 59.3823 10.7667 59.9823 10.34C60.5957 9.91333 60.9023 9.34667 60.9023 8.64C60.9023 7.93333 60.5957 7.36 59.9823 6.92C59.3823 6.48 58.589 6.26 57.6023 6.26C56.6157 6.26 55.8157 6.48 55.2023 6.92C54.6023 7.36 54.3023 7.93333 54.3023 8.64C54.3023 9.34667 54.6023 9.91333 55.2023 10.34C55.8023 10.7667 56.6023 10.98 57.6023 10.98ZM69.385 15V3.32H64.125V0.999999H77.025V3.32H71.785V15H69.385ZM77.9445 15V5H80.0445V8.26C80.2579 7.27333 80.6712 6.45333 81.2845 5.8C81.9112 5.13333 82.6845 4.8 83.6045 4.8C84.2845 4.8 84.8512 4.94667 85.3045 5.24C85.7712 5.53333 86.1179 5.96 86.3445 6.52C86.5712 7.06667 86.6845 7.74 86.6845 8.54V9.34H84.5845V8.94C84.5845 8.24667 84.4112 7.71333 84.0645 7.34C83.7179 6.96667 83.2312 6.78 82.6045 6.78C82.1245 6.78 81.6912 6.91333 81.3045 7.18C80.9179 7.44667 80.6112 7.81333 80.3845 8.28C80.1579 8.74667 80.0445 9.26 80.0445 9.82V15H77.9445ZM93.0881 15.2C92.0748 15.2 91.1548 14.9733 90.3281 14.52C89.5015 14.0667 88.8548 13.4467 88.3881 12.66C87.9215 11.86 87.6881 10.9733 87.6881 10C87.6881 9.01333 87.9215 8.12667 88.3881 7.34C88.8548 6.55333 89.5015 5.93333 90.3281 5.48C91.1548 5.02667 92.0748 4.8 93.0881 4.8C94.1015 4.8 95.0148 5.02667 95.8281 5.48C96.6548 5.93333 97.3015 6.56 97.7681 7.36C98.2481 8.14667 98.4881 9.02667 98.4881 10C98.4881 10.9733 98.2481 11.86 97.7681 12.66C97.3015 13.4467 96.6548 14.0667 95.8281 14.52C95.0148 14.9733 94.1015 15.2 93.0881 15.2ZM93.0881 13.24C93.6881 13.24 94.2348 13.1 94.7281 12.82C95.2215 12.5267 95.6081 12.1333 95.8881 11.64C96.1815 11.1467 96.3281 10.6 96.3281 10C96.3281 9.4 96.1815 8.85333 95.8881 8.36C95.6081 7.85333 95.2215 7.46 94.7281 7.18C94.2348 6.88667 93.6881 6.74 93.0881 6.74C92.4881 6.74 91.9348 6.88667 91.4281 7.18C90.9348 7.46 90.5415 7.85333 90.2481 8.36C89.9681 8.85333 89.8281 9.4 89.8281 10C89.8281 10.6 89.9681 11.1467 90.2481 11.64C90.5415 12.1333 90.9348 12.5267 91.4281 12.82C91.9348 13.1 92.4881 13.24 93.0881 13.24ZM105.088 15V3.32H99.8281V0.999999H112.728V3.32H107.488V15H105.088ZM115.2 15.24C114.267 15.24 113.527 15.02 112.98 14.58C112.433 14.1267 112.16 13.5067 112.16 12.72C112.16 11.9467 112.413 11.3467 112.92 10.92C113.44 10.4933 114.053 10.2 114.76 10.04C115.467 9.86667 116.267 9.74667 117.16 9.68C117.92 9.62667 118.5 9.53333 118.9 9.4C119.313 9.26667 119.52 9.02 119.52 8.66C119.52 7.99333 119.293 7.46667 118.84 7.08C118.387 6.69333 117.82 6.5 117.14 6.5C116.407 6.5 115.8 6.70667 115.32 7.12C114.853 7.52 114.573 8.08 114.48 8.8H112.52C112.587 7.96 112.827 7.24 113.24 6.64C113.667 6.04 114.22 5.58667 114.9 5.28C115.593 4.96 116.353 4.8 117.18 4.8C118.02 4.8 118.76 4.96 119.4 5.28C120.053 5.6 120.56 6.06667 120.92 6.68C121.28 7.29333 121.46 8.01333 121.46 8.84V13.14H122.74V15H119.54V11.6C119.273 12.6667 118.76 13.54 118 14.22C117.24 14.9 116.307 15.24 115.2 15.24ZM116.18 13.58C116.793 13.58 117.353 13.4267 117.86 13.12C118.38 12.8 118.787 12.3867 119.08 11.88C119.373 11.36 119.52 10.8 119.52 10.2L119.54 9.48C119.367 9.64 119.133 9.76 118.84 9.84C118.56 9.90667 118.173 9.96667 117.68 10.02C117.653 10.02 117.62 10.0267 117.58 10.04C117.553 10.04 117.527 10.04 117.5 10.04C116.42 10.1333 115.613 10.3333 115.08 10.64C114.56 10.9467 114.3 11.4 114.3 12C114.3 12.52 114.467 12.9133 114.8 13.18C115.147 13.4467 115.607 13.58 116.18 13.58ZM125.249 15V5H127.349V8.28C127.576 7.22667 128.023 6.38667 128.689 5.76C129.369 5.12 130.176 4.8 131.109 4.8C131.909 4.8 132.603 4.99333 133.189 5.38C133.789 5.75333 134.249 6.29333 134.569 7C134.889 7.69333 135.049 8.51333 135.049 9.46V15H132.929V9.78C132.929 8.86 132.676 8.12667 132.169 7.58C131.676 7.03333 131.003 6.76 130.149 6.76C129.629 6.76 129.156 6.89333 128.729 7.16C128.303 7.42667 127.963 7.79333 127.709 8.26C127.469 8.71333 127.349 9.22 127.349 9.78V15H125.249ZM138.852 15V0.999999H145.092C146.519 0.999999 147.639 1.32 148.452 1.96C149.266 2.6 149.672 3.48 149.672 4.6C149.672 5.41333 149.446 6.10667 148.992 6.68C148.539 7.24 147.892 7.64 147.052 7.88V7.98C148.026 8.19333 148.786 8.6 149.332 9.2C149.879 9.8 150.152 10.5333 150.152 11.4C150.152 12.12 149.966 12.7533 149.592 13.3C149.232 13.8467 148.712 14.2667 148.032 14.56C147.352 14.8533 146.566 15 145.672 15H138.852ZM144.852 12.74C145.706 12.74 146.386 12.5333 146.892 12.12C147.399 11.7067 147.652 11.1533 147.652 10.46C147.652 9.76667 147.392 9.22 146.872 8.82C146.366 8.40667 145.692 8.2 144.852 8.2H141.252V12.74H144.852ZM144.492 7.8C145.346 7.8 146.026 7.59333 146.532 7.18C147.039 6.76667 147.292 6.21333 147.292 5.52C147.292 4.82667 147.039 4.28 146.532 3.88C146.026 3.46667 145.346 3.26 144.492 3.26H141.252V7.8H144.492ZM152.945 15V5H155.045V15H152.945ZM153.905 3.7L152.665 0.0999987H155.365L154.105 3.7H153.905ZM158.648 15V5H160.748V8.28C160.974 7.22667 161.421 6.38667 162.088 5.76C162.768 5.12 163.574 4.8 164.508 4.8C165.308 4.8 166.001 4.99333 166.588 5.38C167.188 5.75333 167.648 6.29333 167.968 7C168.288 7.69333 168.448 8.51333 168.448 9.46V15H166.328V9.78C166.328 8.86 166.074 8.12667 165.568 7.58C165.074 7.03333 164.401 6.76 163.548 6.76C163.028 6.76 162.554 6.89333 162.128 7.16C161.701 7.42667 161.361 7.79333 161.108 8.26C160.868 8.71333 160.748 9.22 160.748 9.78V15H158.648ZM171.851 15V0.799999H173.951V8.28C174.177 7.22667 174.624 6.38667 175.291 5.76C175.971 5.12 176.777 4.8 177.711 4.8C178.511 4.8 179.204 4.99333 179.791 5.38C180.391 5.75333 180.851 6.29333 181.171 7C181.491 7.69333 181.651 8.51333 181.651 9.46V15H179.531V9.78C179.531 8.86 179.277 8.12667 178.771 7.58C178.277 7.03333 177.604 6.76 176.751 6.76C176.231 6.76 175.757 6.89333 175.331 7.16C174.904 7.42667 174.564 7.79333 174.311 8.26C174.071 8.71333 173.951 9.22 173.951 9.78V15H171.851Z" fill="#640087"/>
</svg>
