<svg width="34" height="34" viewBox="0 0 34 34" fill="none" xmlns="http://www.w3.org/2000/svg">
<circle cx="17" cy="17" r="17" fill="#9F44BE"/>
<path d="M24.72 16.02H24.5V16.32H24.96V16.42H24.78L24.72 16.82H24.94C24.9267 16.8467 24.92 16.88 24.92 16.92H24.64C24.6267 16.9867 24.6133 17.0533 24.6 17.12C24.5867 17.1867 24.5667 17.2533 24.54 17.32C24.54 17.3733 24.5267 17.44 24.5 17.52H24.3L24.18 17.82H24.16C24.1467 17.8867 24.12 17.9533 24.08 18.02C24.04 18.0867 24.0067 18.1533 23.98 18.22H24.02L23.96 18.32H24.14C24.1 18.3867 24.06 18.4533 24.02 18.52C23.98 18.5867 23.9333 18.6533 23.88 18.72H24.02C23.9667 18.7867 23.9067 18.8533 23.84 18.92C23.7867 18.9867 23.7267 19.0533 23.66 19.12H23.62C23.54 19.1867 23.46 19.2533 23.38 19.32C23.3133 19.3867 23.2333 19.4533 23.14 19.52H23.02C22.9133 19.5867 22.8 19.6533 22.68 19.72C22.5733 19.7867 22.46 19.8533 22.34 19.92H22.4C22.3733 19.9333 22.34 19.9467 22.3 19.96C22.26 19.9733 22.2267 19.9933 22.2 20.02H22.18C21.9267 20.14 21.6467 20.24 21.34 20.32C21.1933 20.36 21.04 20.4 20.88 20.44C20.72 20.4667 20.56 20.4933 20.4 20.52H20.38C19.8467 20.6 19.28 20.64 18.68 20.64H17.28V20.82H17.42V21.22H17.66V21.32H17.18V21.52H17.36V21.82H16.86V21.92H17.48V22.32H17.3V22.82H17.38V23.12H17.14V23.52H17.04V23.72H17.7V24.02H17.14V24.42H17.52V24.46C17.52 24.5267 17.5133 24.58 17.5 24.62H17.38C17.38 24.6333 17.3667 24.6667 17.34 24.72H17.4C17.3867 24.7467 17.36 24.78 17.32 24.82H17.34C17.2867 24.8733 17.2467 24.9067 17.22 24.92H17.24C17.1733 24.9733 17.08 25 16.96 25H12.84C12.72 25 12.6267 24.9733 12.56 24.92H12.52C12.4933 24.9067 12.4533 24.8733 12.4 24.82C12.3867 24.7933 12.3733 24.7733 12.36 24.76C12.3467 24.7467 12.34 24.7333 12.34 24.72H12.28C12.2533 24.6667 12.24 24.6333 12.24 24.62H12.34C12.3267 24.58 12.32 24.5267 12.32 24.46V24.42H11.94V24.02H12.5V23.72H11.84V23.52H11.94V23.12H12.18V22.82H12.1V22.32H12.28V21.92H11.66V21.82H12.16V21.52H11.98V21.32H12.46V21.22H12.22V20.82H12.08V20.52H12.1V19.92H12.06V19.52H12.18V19.12H12.24V18.72H12.1V18.32H11.92V18.22H11.88V17.82H11.9V17.52H12.1V16.92H12.04V16.82H11.98V16.42H12.2V16.32H12.12V16.02H12.2V15.82H12.18V15.62H11.62V15.22H9.4V14.92H10.42V14.52H12.24V14.32H11.48V13.92H11.02V13.62H11.32V13.52H10.9V13.12H12.44V13.02H12.24V12.72H11.78V12.42H11.14V12.02H12.58V11.72H11.88V11.62H11.74V11.52H12.1C12.1 11.4667 12.1133 11.4 12.14 11.32H11.92C11.9333 11.28 11.9533 11.2467 11.98 11.22C12.0067 11.18 12.0333 11.1467 12.06 11.12H13.28C13.3867 11.04 13.5 11 13.62 11H19.68C20.2667 11 20.8067 11.04 21.3 11.12H20.1C20.26 11.1467 20.4133 11.18 20.56 11.22C20.72 11.2467 20.8667 11.28 21 11.32H21.24C21.3467 11.3467 21.4467 11.38 21.54 11.42C21.6467 11.4467 21.7467 11.48 21.84 11.52H21.48C21.52 11.5333 21.56 11.5467 21.6 11.56C21.64 11.5733 21.68 11.5933 21.72 11.62H21.84L22.06 11.72H22.78L23.3 12.02H21.84C21.9467 12.0733 22.04 12.14 22.12 12.22C22.2 12.2867 22.28 12.3533 22.36 12.42H23L23.3 12.72H23.76C23.8 12.7733 23.84 12.8267 23.88 12.88C23.9333 12.92 23.9733 12.9667 24 13.02H24.2C24.24 13.06 24.2667 13.0933 24.28 13.12H22.74C22.78 13.1733 22.82 13.24 22.86 13.32C22.9 13.3867 22.94 13.4533 22.98 13.52H23.4L23.44 13.62H23.16L23.28 13.92H23.76L23.88 14.32H24.64L24.7 14.52H22.88C22.9067 14.5733 22.92 14.64 22.92 14.72C22.9333 14.7867 22.9467 14.8533 22.96 14.92H25.52C25.5333 14.9733 25.54 15.0267 25.54 15.08C25.54 15.12 25.5467 15.1667 25.56 15.22H25.46C25.4733 15.2867 25.48 15.3533 25.48 15.42C25.4933 15.4867 25.5 15.5533 25.5 15.62H24.72V16.02ZM19.7 16.32H19.24L19.3 16.02H19.52V15.82C19.52 15.7933 19.52 15.76 19.52 15.72C19.52 15.68 19.5133 15.6467 19.5 15.62H20.28C20.2667 15.5533 20.2533 15.4867 20.24 15.42C20.2267 15.34 20.2067 15.2733 20.18 15.22H20.26C20.2333 15.1133 20.1667 15.0133 20.06 14.92H17.5C17.34 14.7867 17.1467 14.72 16.92 14.72H15.52V14.92H14.5V15.22H16.72V15.62H17.28V15.82H17.3V16.02H17.22V16.32H17.3V16.42H17.08V16.82H17.14V16.92H17.2V16.94H18.6C18.68 16.94 18.74 16.9333 18.78 16.92H19.06C19.1133 16.9067 19.16 16.8933 19.2 16.88C19.24 16.8533 19.28 16.8333 19.32 16.82H19.12C19.28 16.7267 19.4 16.5933 19.48 16.42H19.66C19.6867 16.3667 19.7 16.3333 19.7 16.32Z" fill="white"/>
</svg>
