<svg width="117" height="25" viewBox="0 0 117 25" fill="none" xmlns="http://www.w3.org/2000/svg">
<path d="M111.683 16.0224C112.167 16.5289 112.519 16.9034 112.74 17.1456C112.982 17.3659 113.147 17.531 113.235 17.6412C113.345 17.7513 113.422 17.8173 113.466 17.8394C113.511 17.8614 113.588 17.9275 113.698 18.0376C113.808 18.1477 113.984 18.3239 114.226 18.5662C114.469 18.7864 114.832 19.1498 115.316 19.6563C115.713 20.0528 116.032 20.5153 116.275 21.0438C116.539 21.5504 116.517 22.101 116.208 22.6956C116.032 23.004 115.834 23.2242 115.614 23.3564C115.394 23.4665 115.151 23.5105 114.887 23.4885C114.645 23.4665 114.38 23.3894 114.094 23.2573C113.83 23.1251 113.566 22.9599 113.301 22.7617C112.795 22.3873 112.31 21.9578 111.848 21.4733C111.385 20.9668 111.011 20.5813 110.724 20.3171C110.526 20.1188 110.405 19.9867 110.361 19.9206C110.317 19.8766 110.273 19.8435 110.229 19.8215C110.185 19.7775 110.141 19.7334 110.097 19.6894C109.943 19.5352 109.777 19.381 109.601 19.2269C109.425 19.0727 109.249 18.9075 109.073 18.7313V20.0197C109.073 20.262 109.084 20.4382 109.106 20.5483C109.106 20.7685 109.095 20.9337 109.073 21.0438C109.007 21.2861 108.974 21.5174 108.974 21.7376C108.952 21.8477 108.93 21.9578 108.908 22.068C108.885 22.1561 108.852 22.2552 108.808 22.3653C108.786 22.4093 108.764 22.4424 108.742 22.4644C108.742 22.4864 108.742 22.5194 108.742 22.5635C108.72 22.6075 108.698 22.6406 108.676 22.6626C108.676 22.6846 108.665 22.7177 108.643 22.7617C108.533 22.982 108.357 23.1912 108.115 23.3894C107.696 23.6317 107.179 23.6977 106.562 23.5876C106.232 23.5215 105.978 23.4004 105.802 23.2242C105.604 23.0921 105.472 22.9049 105.406 22.6626C105.362 22.5525 105.318 22.4424 105.274 22.3322C105.252 22.2001 105.219 22.079 105.174 21.9689C105.13 21.8587 105.108 21.7596 105.108 21.6715C105.108 21.5614 105.108 21.4733 105.108 21.4072V2.60984C105.108 2.4777 105.108 2.34556 105.108 2.21342C105.108 2.08127 105.119 1.94913 105.141 1.81698C105.163 1.68484 105.185 1.56371 105.208 1.45359C105.252 1.32145 105.296 1.20031 105.34 1.0902C105.428 0.869956 105.538 0.693766 105.67 0.561623C105.78 0.451503 105.89 0.37442 106 0.330371C106.133 0.2643 106.254 0.20924 106.364 0.165192C106.474 0.143168 106.595 0.132156 106.727 0.132156C106.881 0.110133 107.024 0.0991211 107.157 0.0991211C107.465 0.0991211 107.773 0.187216 108.082 0.363406C108.368 0.561622 108.577 0.814896 108.709 1.12323C108.885 1.54168 108.974 1.94913 108.974 2.34556C108.996 2.5658 109.018 2.90717 109.04 3.36967C109.062 3.81015 109.073 4.14051 109.073 4.36075V4.49289C109.095 5.21968 109.106 5.91343 109.106 6.57415C109.106 7.23486 109.106 7.95064 109.106 8.72148C109.084 9.49231 109.073 10.2301 109.073 10.9349C109.073 11.6176 109.073 12.3004 109.073 12.9831V13.3465C109.249 13.1703 109.425 13.0051 109.601 12.851C109.777 12.6968 109.943 12.5316 110.097 12.3554C110.185 12.2893 110.273 12.2123 110.361 12.1242L110.724 11.7608C111.011 11.4745 111.385 11.089 111.848 10.6045C112.31 10.098 112.795 9.65749 113.301 9.28309C113.852 8.88666 114.38 8.64439 114.887 8.5563C115.416 8.4682 115.856 8.73249 116.208 9.34916C116.517 9.9438 116.539 10.5054 116.275 11.034C116.032 11.5405 115.713 12.014 115.316 12.4545C114.832 12.9611 114.469 13.3355 114.226 13.5777C113.984 13.798 113.808 13.9632 113.698 14.0733C113.588 14.1614 113.511 14.2164 113.466 14.2385C113.422 14.2605 113.345 14.3266 113.235 14.4367C113.147 14.5248 112.982 14.69 112.74 14.9322C112.519 15.1525 112.167 15.5159 111.683 16.0224Z" fill="#B6001C"/>
<path d="M102.205 11.1C102.205 11.7167 102.205 12.4104 102.205 13.1813C102.228 13.9521 102.239 14.756 102.239 15.5929C102.239 16.4078 102.239 17.2226 102.239 18.0375C102.239 18.8304 102.228 19.5682 102.205 20.2509C102.183 20.5813 102.15 20.9447 102.106 21.3411C102.062 21.7155 101.974 22.0679 101.842 22.3983C101.71 22.7286 101.501 23.0039 101.214 23.2242C100.95 23.4224 100.587 23.5105 100.124 23.4884C99.4415 23.4444 98.9459 23.1471 98.6376 22.5965C98.3513 22.0459 98.1861 21.275 98.1421 20.284C98.1421 19.7774 98.1311 19.1938 98.109 18.5331C98.109 17.8723 98.098 17.2006 98.076 16.5179C98.076 15.8351 98.076 15.1744 98.076 14.5357C98.076 13.875 98.076 13.2804 98.076 12.7518C98.076 12.4435 98.065 12.069 98.043 11.6286C98.043 11.1881 98.054 10.7366 98.076 10.2741C98.098 9.8116 98.1531 9.37112 98.2412 8.95267C98.3293 8.51219 98.4724 8.1488 98.6706 7.86248C98.8248 7.68629 99.0451 7.55415 99.3314 7.46606C99.6177 7.35594 99.915 7.30088 100.223 7.30088C100.554 7.30088 100.862 7.35594 101.148 7.46606C101.457 7.57618 101.677 7.73034 101.809 7.92856C101.897 8.0607 101.963 8.2479 102.007 8.49017C102.051 8.73243 102.084 9.00773 102.106 9.31606C102.15 9.60237 102.172 9.91071 102.172 10.2411C102.194 10.5494 102.205 10.8357 102.205 11.1ZM100.95 4.42676C100.267 4.60295 99.6948 4.53688 99.2323 4.22854C98.7918 3.89818 98.5165 3.41366 98.4064 2.77496C98.3183 2.31246 98.3513 1.90502 98.5055 1.55264C98.6596 1.20026 98.8909 0.93597 99.1992 0.759778C99.5076 0.561563 99.8599 0.473467 100.256 0.495491C100.653 0.517515 101.049 0.671682 101.446 0.957993C101.82 1.22228 102.084 1.53061 102.239 1.883C102.415 2.23538 102.47 2.57675 102.404 2.90711C102.36 3.23747 102.216 3.5458 101.974 3.83211C101.732 4.0964 101.391 4.29461 100.95 4.42676Z" fill="#B6001C"/>
<path d="M95.0502 1.25547C95.2925 1.54178 95.4136 1.83911 95.4136 2.14744C95.4136 2.27958 95.4026 2.42274 95.3806 2.57691C95.3806 2.70905 95.3696 2.83018 95.3476 2.9403C95.2815 3.18256 95.1383 3.41382 94.9181 3.63405C94.7419 3.7662 94.4996 3.8653 94.1913 3.93138C94.0371 3.97542 93.883 4.00846 93.7288 4.03048C93.5746 4.05251 93.4095 4.08554 93.2333 4.12959C93.0791 4.15161 92.9249 4.16263 92.7708 4.16263C92.6166 4.16263 92.4514 4.16263 92.2752 4.16263H90.5904C90.194 4.18465 89.7975 4.19566 89.4011 4.19566C89.0267 4.19566 88.6523 4.19566 88.2779 4.19566C88.2999 4.8784 88.3109 5.6162 88.3109 6.40907C88.3109 7.1799 88.2999 8.08288 88.2779 9.118C88.2779 10.1531 88.2669 11.3534 88.2449 12.7189C88.2449 14.0844 88.2449 15.6701 88.2449 17.4761V19.9868C88.2449 20.207 88.2559 20.3722 88.2779 20.4823C88.2779 20.5704 88.2779 20.6585 88.2779 20.7466C88.2779 20.8127 88.2669 20.9008 88.2449 21.0109C88.2008 21.2091 88.1678 21.4404 88.1457 21.7047C88.1457 21.8148 88.1347 21.9249 88.1127 22.035C88.0907 22.1231 88.0577 22.2222 88.0136 22.3323C87.9255 22.4204 87.8815 22.4865 87.8815 22.5306L87.7824 22.7288C87.6722 22.949 87.463 23.1582 87.1547 23.3565C86.6701 23.5987 86.1306 23.6538 85.5359 23.5216C85.1615 23.4776 84.8752 23.3785 84.677 23.2243C84.4788 23.0261 84.3356 22.8279 84.2475 22.6297C84.1154 22.3874 84.0383 22.1562 84.0163 21.9359C83.9502 21.7377 83.9172 21.5285 83.9172 21.3082V4.32781C83.785 4.32781 83.5097 4.32781 83.0913 4.32781C82.6728 4.32781 82.2213 4.32781 81.7368 4.32781C81.2743 4.30578 80.8338 4.28376 80.4154 4.26173C79.9969 4.23971 79.7106 4.21769 79.5564 4.19566C79.4243 4.17364 79.2151 4.1406 78.9287 4.09656C78.6645 4.05251 78.4442 4.00846 78.268 3.96441C77.8055 3.83227 77.4421 3.62304 77.1778 3.33673C76.9356 3.05042 76.8145 2.73107 76.8145 2.37869C76.8145 2.24655 76.8145 2.1144 76.8145 1.98226C76.8145 1.85012 76.8365 1.72899 76.8805 1.61887C76.9466 1.35458 77.1228 1.13434 77.4091 0.95815C77.4972 0.892079 77.6293 0.814996 77.8055 0.7269C78.0037 0.616781 78.1909 0.539697 78.3671 0.495648C78.6314 0.407553 78.9618 0.341481 79.3582 0.297434C79.5344 0.27541 79.7106 0.264398 79.8868 0.264398C80.063 0.264398 80.2502 0.264398 80.4484 0.264398C81.2192 0.264398 81.946 0.264398 82.6288 0.264398C83.3335 0.264398 84.0713 0.253386 84.8422 0.231362C86.1195 0.209338 87.3859 0.209338 88.6413 0.231362C89.9187 0.231362 91.185 0.253387 92.4404 0.297434C92.7267 0.319457 93.002 0.352493 93.2663 0.396542C93.5306 0.440589 93.7949 0.517672 94.0592 0.627792C94.2574 0.693864 94.4446 0.781959 94.6208 0.892079C94.797 0.980174 94.9401 1.10131 95.0502 1.25547Z" fill="#B6001C"/>
<path d="M60.62 11.8268C60.62 11.3203 60.6089 10.7807 60.5869 10.2081C60.5869 9.63543 60.686 9.11787 60.8842 8.65537C61.0604 8.23692 61.3467 7.93959 61.7432 7.7634C62.1616 7.56519 62.5691 7.52114 62.9655 7.63126C63.3619 7.69733 63.6703 7.81846 63.8905 7.99465C64.1107 8.17084 64.2649 8.38007 64.353 8.62233C64.4631 8.84257 64.5292 9.10686 64.5512 9.41519C64.5732 9.7015 64.5953 9.98781 64.6173 10.2741C64.8375 9.8777 65.1128 9.55835 65.4432 9.31609C65.7735 9.07382 66.1149 8.87561 66.4673 8.72144C66.8197 8.56727 67.15 8.45715 67.4584 8.39108C67.7887 8.32501 68.042 8.29197 68.2182 8.29197C69.0551 8.29197 69.881 8.47918 70.6959 8.85358C71.5328 9.20597 72.2265 9.71252 72.7771 10.3732C73.0855 10.7697 73.3167 11.1881 73.4709 11.6286C73.6471 12.047 73.7682 12.4875 73.8343 12.95C73.9224 13.4125 73.9774 13.886 73.9995 14.3706C74.0215 14.8331 74.0435 15.3066 74.0655 15.7911C74.1757 17.2006 74.1757 18.5992 74.0655 19.9867C74.0435 20.273 74.0325 20.6033 74.0325 20.9777C74.0325 21.3521 73.9995 21.7266 73.9334 22.101C73.8894 22.4533 73.7902 22.7727 73.6361 23.059C73.5039 23.3233 73.2727 23.4885 72.9423 23.5545C72.4798 23.6647 72.0944 23.6867 71.7861 23.6206C71.4998 23.5766 71.2685 23.4775 71.0923 23.3233C70.9161 23.1691 70.784 22.9709 70.6959 22.7286C70.6078 22.4864 70.5307 22.2111 70.4646 21.9027C70.4206 21.6605 70.3765 21.3852 70.3325 21.0768C70.3105 20.7465 70.2884 20.4161 70.2664 20.0858C70.2664 19.7554 70.2554 19.4361 70.2334 19.1277C70.2334 18.7974 70.2334 18.5 70.2334 18.2358C70.2334 17.8173 70.2224 17.3548 70.2003 16.8483C70.1783 16.3417 70.1783 15.8682 70.2003 15.4277C70.2003 14.3926 69.925 13.6107 69.3745 13.0822C68.8459 12.5316 68.1191 12.3003 67.1941 12.3884C66.4893 12.4765 65.8726 12.7628 65.3441 13.2474C64.8155 13.7099 64.5622 14.3155 64.5843 15.0643C64.5843 15.3506 64.5843 15.6149 64.5843 15.8572C64.5843 16.0994 64.5732 16.3417 64.5512 16.584C64.5512 16.8262 64.5512 17.0905 64.5512 17.3768C64.5512 17.6631 64.5512 17.9825 64.5512 18.3349C64.5512 19.0617 64.5512 19.8325 64.5512 20.6474C64.5512 21.4402 64.4521 22.0899 64.2539 22.5965C64.0777 23.1251 63.7804 23.4885 63.3619 23.6867C62.9435 23.8849 62.4479 23.8298 61.8753 23.5215C61.633 23.3894 61.4348 23.2132 61.2807 22.9929C61.1485 22.7507 61.0384 22.4974 60.9503 22.2331C60.8842 21.9688 60.8402 21.7045 60.8182 21.4402C60.7961 21.1539 60.7741 20.8896 60.7521 20.6474C60.686 19.9206 60.642 19.2489 60.62 18.6322C60.62 17.9935 60.62 17.3108 60.62 16.584V11.8268Z" fill="#383838"/>
<path d="M57.6832 8.75466C57.8814 9.04097 57.9475 9.49246 57.8814 10.1091C57.8374 10.7038 57.7273 11.3535 57.5511 12.0582C57.3749 12.741 57.1656 13.4237 56.9234 14.1065C56.6811 14.7672 56.4829 15.3178 56.3287 15.7583C55.9543 16.7714 55.624 17.7184 55.3377 18.5993C55.0514 19.4803 54.71 20.4493 54.3136 21.5065C54.1814 21.8148 54.0493 22.1232 53.9171 22.4315C53.807 22.7398 53.6639 23.0151 53.4877 23.2574C53.3335 23.4997 53.1353 23.6979 52.893 23.852C52.6728 24.0062 52.3975 24.0833 52.0671 24.0833C51.6927 24.0833 51.3624 23.9511 51.076 23.6869C50.8118 23.4226 50.5805 23.0922 50.3823 22.6958C50.2061 22.2993 50.0519 21.8809 49.9198 21.4404C49.7876 20.9999 49.6775 20.6145 49.5894 20.2842C49.3031 19.3151 49.0498 18.4342 48.8296 17.6413C48.6094 16.8264 48.4111 16.0996 48.235 15.4609C48.0367 16.0996 47.8385 16.7934 47.6403 17.5422C47.4421 18.291 47.1888 19.1389 46.8805 20.0859C46.7924 20.4163 46.6823 20.8237 46.5501 21.3083C46.418 21.7708 46.2528 22.2113 46.0546 22.6297C45.8784 23.0482 45.6472 23.4005 45.3608 23.6869C45.0966 23.9952 44.7772 24.1273 44.4028 24.0833C43.8742 24.0613 43.4117 23.852 43.0153 23.4556C42.6409 23.0372 42.3105 22.5416 42.0242 21.969C41.7599 21.3964 41.5287 20.8017 41.3305 20.1851C41.1323 19.5684 40.9671 19.0288 40.8349 18.5663C40.6587 17.9717 40.4495 17.3109 40.2072 16.5841C39.965 15.8574 39.7227 15.1196 39.4805 14.3707C39.2602 13.5999 39.051 12.8401 38.8528 12.0913C38.6546 11.3204 38.5224 10.6157 38.4563 9.97698C38.4123 9.55853 38.4894 9.17311 38.6876 8.82073C38.9078 8.46834 39.1831 8.22608 39.5135 8.09394C39.8659 7.93977 40.2403 7.90673 40.6367 7.99483C41.0552 8.08293 41.4296 8.34721 41.7599 8.78769C41.9361 9.00793 42.0903 9.28323 42.2224 9.61359C42.3766 9.94395 42.5087 10.3073 42.6189 10.7038C42.729 11.0782 42.8391 11.4636 42.9492 11.86C43.0593 12.2565 43.1695 12.6419 43.2796 13.0163C43.5218 13.8532 43.7201 14.5139 43.8742 14.9984C44.0504 15.4609 44.2266 15.9455 44.4028 16.452C44.557 15.9455 44.7111 15.4609 44.8653 14.9984C45.0415 14.5139 45.2507 13.8532 45.493 13.0163C45.5811 12.752 45.6802 12.4547 45.7903 12.1243C45.9225 11.7719 46.0546 11.4416 46.1867 11.1332C46.3409 10.8249 46.5061 10.5386 46.6823 10.2743C46.8805 9.98799 47.0897 9.77877 47.31 9.64662C47.7945 9.31626 48.235 9.23918 48.6314 9.41537C49.0278 9.56954 49.3692 9.84484 49.6555 10.2413C49.9418 10.6377 50.1841 11.1002 50.3823 11.6288C50.6025 12.1353 50.7787 12.5978 50.9109 13.0163C51.043 13.4568 51.1641 13.8422 51.2743 14.1725C51.3844 14.4809 51.4835 14.7672 51.5716 15.0315C51.6597 15.2958 51.7368 15.549 51.8028 15.7913C51.8909 16.0336 51.979 16.2868 52.0671 16.5511C52.1552 16.2868 52.2323 16.0336 52.2984 15.7913C52.3865 15.549 52.4746 15.2958 52.5627 15.0315C52.6508 14.7672 52.7499 14.4809 52.86 14.1725C52.9701 13.8422 53.0912 13.4568 53.2234 13.0163C53.3115 12.73 53.3996 12.3996 53.4877 12.0252C53.5978 11.6508 53.7079 11.2764 53.818 10.902C53.9281 10.5056 54.0383 10.1311 54.1484 9.77877C54.2805 9.42638 54.4237 9.12906 54.5778 8.8868C54.732 8.64453 54.9412 8.44632 55.2055 8.29215C55.4698 8.11596 55.7451 8.01685 56.0314 7.99483C56.3177 7.95078 56.604 7.98382 56.8904 8.09394C57.1987 8.20406 57.463 8.4243 57.6832 8.75466Z" fill="#383838"/>
<path d="M24.3609 8.68824C25.0877 8.33585 25.8475 8.08258 26.6404 7.92841C27.4332 7.77424 28.2151 7.74121 28.9859 7.8293C29.7788 7.9174 30.5386 8.12663 31.2654 8.45698C32.0142 8.78734 32.6969 9.24984 33.3136 9.84449C33.8202 10.351 34.2606 10.9677 34.635 11.6945C35.0094 12.3993 35.2847 13.093 35.4609 13.7758C35.8353 14.9871 35.8904 16.2094 35.6261 17.4427C35.3618 18.6761 34.9103 19.8213 34.2716 20.8785C33.9633 21.363 33.5779 21.8035 33.1154 22.1999C32.6749 22.5743 32.2014 22.8826 31.6948 23.1249C31.0341 23.4332 30.3184 23.6425 29.5475 23.7526C28.7767 23.8847 28.0279 23.9178 27.3011 23.8517C25.9796 23.7856 24.8124 23.4553 23.7993 22.8606C22.8082 22.266 22.0043 21.5061 21.3877 20.5811C20.793 19.6561 20.3966 18.61 20.1984 17.4427C20.0222 16.2534 20.0993 15.0421 20.4296 13.8088C20.782 12.4874 21.2886 11.4192 21.9493 10.6043C22.632 9.76741 23.4359 9.12871 24.3609 8.68824ZM25.352 13.115C25.0216 13.4234 24.7683 13.8088 24.5921 14.2713C24.4159 14.7338 24.3058 15.2183 24.2618 15.7249C24.2177 16.2094 24.2508 16.7049 24.3609 17.2115C24.493 17.696 24.6912 18.1365 24.9555 18.5329C25.1758 18.8633 25.5722 19.1386 26.1448 19.3588C26.7174 19.5791 27.3121 19.7112 27.9288 19.7552C28.6335 19.7993 29.2502 19.6121 29.7788 19.1936C30.3073 18.7532 30.7038 18.2136 30.9681 17.5749C31.2544 16.9362 31.3865 16.2424 31.3645 15.4936C31.3425 14.7448 31.1442 14.0621 30.7698 13.4454C30.5056 13.0049 30.1311 12.6856 29.6466 12.4874C29.1841 12.2671 28.6886 12.157 28.16 12.157C27.6535 12.135 27.1469 12.2121 26.6404 12.3882C26.1338 12.5424 25.7043 12.7847 25.352 13.115Z" fill="#383838"/>
<path d="M17.3769 10.3402C17.4209 11.067 17.4099 11.8158 17.3438 12.5867C17.2998 13.3575 17.2227 14.1063 17.1126 14.8331C16.8923 16.0885 16.4849 17.3108 15.8902 18.5001C15.2956 19.6894 14.4257 20.7025 13.2804 21.5394C12.0911 22.4203 10.7367 23.026 9.217 23.3563C7.69735 23.6647 6.18872 23.8519 4.69109 23.918C4.18454 23.962 3.66698 23.973 3.13841 23.951C2.63186 23.951 2.13632 23.8959 1.65179 23.7858C1.25536 23.7197 0.95804 23.5986 0.759824 23.4224C0.649705 23.3563 0.561609 23.2682 0.495538 23.1581C0.429466 23.048 0.374406 22.9379 0.330358 22.8278C0.264287 22.7177 0.209227 22.6075 0.165179 22.4974C0.143155 22.3653 0.110119 22.2331 0.0660716 22.101C0.0440477 21.9909 0.0220239 21.8918 0 21.8037C0 21.6935 0 21.5944 0 21.5063V2.64287C0 2.4887 0 2.34555 0 2.2134C0 2.08126 0.0220238 1.94912 0.0660716 1.81697C0.110119 1.50864 0.176191 1.25536 0.264287 1.05715C0.352382 0.79286 0.473514 0.605657 0.627681 0.495538C0.759825 0.385418 0.891968 0.308335 1.02411 0.264288C1.15625 0.198216 1.27739 0.143156 1.38751 0.0991085C1.51965 0.05506 1.65179 0.05506 1.78394 0.0991085C1.9381 0.121132 2.10328 0.0880958 2.27947 0L7.79646 0.132144C9.25004 0.176191 10.5494 0.517562 11.6947 1.15626C12.8399 1.77292 13.82 2.56578 14.6349 3.53484C15.4498 4.50389 16.0885 5.59407 16.551 6.80538C17.0135 7.99468 17.2888 9.17295 17.3769 10.3402ZM11.2322 16.617C11.6506 15.9563 11.959 15.1965 12.1572 14.3376C12.3554 13.4786 12.4435 12.6087 12.4215 11.7277C12.3995 10.8247 12.2783 9.9548 12.0581 9.11789C11.8378 8.25896 11.5295 7.49914 11.1331 6.83842C10.8247 6.35389 10.4283 5.95746 9.94379 5.64913C9.45926 5.3408 8.91968 5.10954 8.32503 4.95538C7.73039 4.77919 7.0917 4.65805 6.40896 4.59198C5.74824 4.52591 5.09853 4.49287 4.45984 4.49287C4.48186 5.13157 4.49288 5.74824 4.49288 6.34288C4.49288 6.93753 4.49288 7.56521 4.49288 8.22593C4.47085 9.01879 4.45984 9.78962 4.45984 10.5384C4.45984 11.2872 4.45984 12.014 4.45984 12.7188V19.4581C5.14258 19.4361 5.79229 19.4031 6.40896 19.359C7.04765 19.2929 7.6533 19.1608 8.22593 18.9626C8.82057 18.7644 9.36016 18.4891 9.84468 18.1367C10.3512 17.7623 10.8137 17.2557 11.2322 16.617Z" fill="#383838"/>
</svg>
