<svg width="20" height="24" viewBox="0 0 20 24" fill="none" xmlns="http://www.w3.org/2000/svg">
<path d="M14.9991 7.57981H8.12449C7.08902 7.57981 6.24961 8.42807 6.24961 9.47445V20.8423C6.24961 21.8887 7.08902 22.7369 8.12449 22.7369H16.8739C17.9094 22.7369 18.7488 21.8887 18.7488 20.8423V11.3691H15.624C15.2789 11.3691 14.9991 11.0863 14.9991 10.7375V7.57981ZM19.9987 10.7729V20.8423C19.9987 22.5862 18.5997 24 16.8739 24H8.12449C6.39871 24 4.99969 22.5862 4.99969 20.8423V9.47445C4.99969 7.73049 6.39871 6.31672 8.12449 6.31672H15.5891C15.755 6.30609 15.9277 6.36199 16.0659 6.5017L19.8157 10.291C19.954 10.4307 20.0093 10.6052 19.9987 10.7729ZM16.249 10.106H17.865L16.249 8.47295V10.106ZM9.37441 13.894C9.02926 13.894 8.74945 13.6112 8.74945 13.2625C8.74945 12.9137 9.02926 12.6309 9.37441 12.6309H15.624C15.9692 12.6309 16.249 12.9137 16.249 13.2625C16.249 13.6112 15.9692 13.894 15.624 13.894H9.37441ZM9.37441 16.4202C9.02926 16.4202 8.74945 16.1374 8.74945 15.7886C8.74945 15.4398 9.02926 15.1571 9.37441 15.1571H15.624C15.9692 15.1571 16.249 15.4398 16.249 15.7886C16.249 16.1374 15.9692 16.4202 15.624 16.4202H9.37441ZM9.37441 18.9464C9.02926 18.9464 8.74945 18.6636 8.74945 18.3148C8.74945 17.966 9.02926 17.6833 9.37441 17.6833H14.3741C14.7193 17.6833 14.9991 17.966 14.9991 18.3148C14.9991 18.6636 14.7193 18.9464 14.3741 18.9464H9.37441ZM11.8743 2.52618C11.5291 2.52618 11.2493 2.24343 11.2493 1.89464C11.2493 1.54584 11.5291 1.26309 11.8743 1.26309C13.6 1.26309 14.9991 2.67685 14.9991 4.42082V6.31546C14.9991 6.66425 14.7193 6.947 14.3741 6.947C14.0289 6.947 13.7491 6.66425 13.7491 6.31546V4.42082C13.7491 3.37444 12.9097 2.52618 11.8743 2.52618ZM3.1248 1.26309C3.46996 1.26309 3.74977 1.54584 3.74977 1.89464C3.74977 2.24343 3.46996 2.52618 3.1248 2.52618C2.08934 2.52618 1.24992 3.37444 1.24992 4.42082V15.7886C1.24992 16.835 2.08934 17.6833 3.1248 17.6833H4.99969C5.34484 17.6833 5.62465 17.966 5.62465 18.3148C5.62465 18.6636 5.34484 18.9464 4.99969 18.9464H3.1248C1.39902 18.9464 0 17.5326 0 15.7886V4.42082C0 2.67685 1.39902 1.26309 3.1248 1.26309ZM6.24961 1.89464C6.24961 2.24343 5.9698 2.52618 5.62465 2.52618C5.27949 2.52618 4.99969 2.24343 4.99969 1.89464C4.99969 0.848258 5.8391 0 6.87457 0H8.12449C9.15996 0 9.99937 0.848258 9.99937 1.89464C9.99937 2.24343 9.71957 2.52618 9.37441 2.52618C9.02926 2.52618 8.74945 2.24343 8.74945 1.89464C8.74945 1.54584 8.46965 1.26309 8.12449 1.26309H6.87457C6.52941 1.26309 6.24961 1.54584 6.24961 1.89464Z" fill="black"/>
</svg>
